<svg version="1.1" width="56" height="70" viewBox="-1 -1 56 70" xmlns="http://www.w3.org/2000/svg" xmlns:xlink="http://www.w3.org/1999/xlink">
  <!-- Exported by Scratch - http://scratch.mit.edu/ -->
  <g id="ID0.1412118007428944" transform="matrix(1, 0, 0, 1, -212, -147)">
    <path id="ID0.013287227600812912" fill="#CC6F6D" d="M 56.200 68.200 C 37.900 64.400 19.600 60.600 1.300 56.700 C 4.600 40.300 7.900 23.800 11.200 7.400 C 22.900 5 34.600 2.600 46.300 0.100 C 49.600 22.800 52.900 45.500 56.200 68.200 Z " transform="matrix(1, 0, 0, 1, 211, 147)"/>
    <path id="ID0.22461271425709128" fill="#E2C7C7" d="M 29.300 23 C 33.438 23 37.188 24.681 39.904 27.396 C 42.619 30.112 44.300 33.862 44.300 38 C 44.300 42.138 42.619 45.888 39.904 48.604 C 37.188 51.319 33.438 53 29.300 53 C 25.162 53 21.412 51.319 18.696 48.604 C 15.981 45.888 14.300 42.138 14.300 38 C 14.300 33.862 15.981 30.112 18.696 27.396 C 21.412 24.681 25.162 23 29.300 23 Z " transform="matrix(1.2000000476837158, 0, 0, 1.2000000476837158, 204.45, 136.6)"/>
    <path id="ID0.4489202694967389" fill="none" d="M 15.600 32.100 L 43.300 32.100 L 43.300 49.800 L 15.600 49.800 L 15.600 32.100 Z " transform="matrix(1, 0, 0, 1, 211, 147)"/>
    <text id="ID0.19915340887382627" fill="#B24242" font-family="Helvetica" font-size="17" transform="matrix(0.7976335883140564, 0, 0, 0.7976335883140564, 221.15, 172.55)">R$10</text>
  </g>
</svg>