<svg version="1.1" width="66" height="82" viewBox="-1 -1 66 82" xmlns="http://www.w3.org/2000/svg" xmlns:xlink="http://www.w3.org/1999/xlink">
  <!-- Exported by Scratch - http://scratch.mit.edu/ -->
  <g id="ID0.7257735473103821" transform="matrix(1, 0, 0, 1, -207, -139)">
    <path id="ID0.7515023578889668" fill="#5DC0DB" d="M 68.400 79.700 C 46.800 75.200 25.100 70.700 3.500 66.200 C 7.400 46.800 11.300 27.500 15.200 8.100 C 29 5.300 42.800 2.500 56.600 -0.400 C 60.500 26.300 64.500 53 68.400 79.700 Z " transform="matrix(1, 0, 0, 1, 204, 140)"/>
    <path id="ID0.8773908512666821" fill="#9AD9EF" d="M 35.500 33.500 C 39.638 33.500 43.388 35.181 46.104 37.896 C 48.819 40.612 50.500 44.362 50.500 48.500 C 50.500 52.638 48.819 56.388 46.104 59.104 C 43.388 61.819 39.638 63.500 35.500 63.500 C 31.362 63.500 27.612 61.819 24.896 59.104 C 22.181 56.388 20.500 52.638 20.500 48.500 C 20.500 44.362 22.181 40.612 24.896 37.896 C 27.612 35.181 31.362 33.500 35.500 33.500 Z " transform="matrix(1.625, 0, 0, 1.625, 182.95, 102.8)"/>
    <text id="ID0.18354082899168134" fill="#2E3192" font-family="Helvetica" font-size="17" transform="matrix(0.9784482717514038, 0, 0, 0.9784482717514038, 214.3, 169.5)">R$100</text>
  </g>
</svg>