<svg version="1.1" width="51" height="56" viewBox="-1 -1 51 56" xmlns="http://www.w3.org/2000/svg" xmlns:xlink="http://www.w3.org/1999/xlink">
  <!-- Exported by Scratch - http://scratch.mit.edu/ -->
  <g id="ID0.7772521432489157" transform="matrix(1, 0, 0, 1, -215, -153)">
    <path id="ID0.6427814872004092" fill="#29ABE2" d="M 52.700 58.500 C 36.100 55.500 19.500 52.400 2.800 49.400 C 5.800 36.300 8.800 23.200 11.800 10.100 C 22.400 8.100 33 6.200 43.700 4.200 C 46.700 22.300 49.700 40.400 52.700 58.500 Z " transform="matrix(1, 0, 0, 1, 213, 149)"/>
    <path id="ID0.978344973642379" fill="#9AD9EF" d="M 27.300 14.400 C 31.438 14.400 35.188 16.081 37.904 18.796 C 40.619 21.512 42.300 25.262 42.300 29.400 C 42.300 33.538 40.619 37.288 37.904 40.004 C 35.188 42.719 31.438 44.400 27.300 44.400 C 23.162 44.400 19.412 42.719 16.696 40.004 C 13.981 37.288 12.300 33.538 12.300 29.400 C 12.300 25.262 13.981 21.512 16.696 18.796 C 19.412 16.081 23.162 14.400 27.300 14.400 Z " transform="matrix(1, 0, 0, 1, 213, 149)"/>
    <path id="ID0.5819263840094209" fill="none" d="M 15.600 23.600 L 38.900 23.600 L 38.900 41.300 L 15.600 41.300 L 15.600 23.600 Z " transform="matrix(1, 0, 0, 1, 213, 149)"/>
    <text id="ID0.3944415948353708" fill="#0071BC" font-family="Helvetica" font-size="17" transform="matrix(0.8654105067253113, 0, 0, 0.8654105067253113, 225.05, 169.65)">R$2</text>
  </g>
</svg>