<svg version="1.1" width="60" height="72" viewBox="-1 -1 60 72" xmlns="http://www.w3.org/2000/svg" xmlns:xlink="http://www.w3.org/1999/xlink">
  <!-- Exported by Scratch - http://scratch.mit.edu/ -->
  <g id="ID0.7113126749172807" transform="matrix(1, 0, 0, 1, -210, -144)">
    <path id="ID0.8396348608657718" fill="#E5B473" d="M 60.100 70.400 C 40.600 66.400 21.100 62.500 1.500 58.500 C 5 41.400 8.500 24.300 12.100 7.200 C 24.600 4.700 37.100 2.100 49.500 -0.400 C 53 23.200 56.500 46.800 60.100 70.400 Z " transform="matrix(1, 0, 0, 1, 209, 145)"/>
    <path id="ID0.5050400197505951" fill="#F2D9BB" d="M 30.800 25 C 34.938 25 38.688 26.681 41.404 29.396 C 44.119 32.112 45.800 35.862 45.800 40 C 45.800 44.138 44.119 47.888 41.404 50.604 C 38.688 53.319 34.938 55 30.800 55 C 26.662 55 22.912 53.319 20.196 50.604 C 17.481 47.888 15.800 44.138 15.800 40 C 15.800 35.862 17.481 32.112 20.196 29.396 C 22.912 26.681 26.662 25 30.800 25 Z " transform="matrix(1.2999999523162842, 0, 0, 1.2999999523162842, 200.75, 128.75)"/>
    <text id="ID0.6238628197461367" fill="#754C24" font-family="Helvetica" font-size="17" transform="matrix(0.9482758641242981, 0, 0, 0.9482758641242981, 219.3, 170.5)">R$20</text>
  </g>
</svg>