<svg version="1.1" width="56" height="64" viewBox="-1 -1 56 64" xmlns="http://www.w3.org/2000/svg" xmlns:xlink="http://www.w3.org/1999/xlink">
  <!-- Exported by Scratch - http://scratch.mit.edu/ -->
  <g id="ID0.014911158010363579" transform="matrix(1, 0, 0, 1, -212, -150)">
    <path id="ID0.2783162551932037" fill="#C172AB" d="M 55.700 61.700 C 37.400 58.200 19.100 54.700 0.800 51.200 C 4.100 36.100 7.400 21 10.700 5.900 C 22.400 3.700 34.100 1.400 45.800 -0.800 C 49.100 20 52.400 40.900 55.700 61.700 Z " transform="matrix(1, 0, 0, 1, 212, 151)"/>
    <path id="ID0.8374424274079502" fill="#D6C5D2" d="M 27.800 17 C 31.938 17 35.688 18.681 38.404 21.396 C 41.119 24.112 42.800 27.862 42.800 32 C 42.800 36.138 41.119 39.888 38.404 42.604 C 35.688 45.319 31.938 47 27.800 47 C 23.662 47 19.912 45.319 17.196 42.604 C 14.481 39.888 12.800 36.138 12.800 32 C 12.800 27.862 14.481 24.112 17.196 21.396 C 19.912 18.681 23.662 17 27.800 17 Z " transform="matrix(1, 0, 0, 1, 212, 151)"/>
    <path id="ID0.2572784344665706" fill="none" d="M 16.100 26.100 L 39.400 26.100 L 39.400 43.800 L 16.100 43.800 L 16.100 26.100 Z " transform="matrix(1, 0, 0, 1, 212, 151)"/>
    <text id="ID0.638741519767791" fill="#9B5189" font-family="Helvetica" font-size="17" transform="matrix(0.8627187013626099, 0, 0, 0.8627187013626099, 224.15, 171.55)">R$5</text>
  </g>
</svg>