<svg version="1.1" width="64" height="77" viewBox="-1 -1 64 77" xmlns="http://www.w3.org/2000/svg" xmlns:xlink="http://www.w3.org/1999/xlink">
  <!-- Exported by Scratch - http://scratch.mit.edu/ -->
  <g id="ID0.9077695729210973" transform="matrix(1, 0, 0, 1, -207, -140)">
    <path id="ID0.7813989496789873" fill="#D1BF75" d="M 61.900 76.300 C 41.100 72.100 20.200 67.800 -0.600 63.600 C 3.200 45.400 6.900 27.200 10.700 9 C 24 6.300 37.300 3.600 50.700 0.900 C 54.400 26.100 58.200 51.200 61.900 76.300 Z " transform="matrix(1, 0, 0, 1, 208, 140)"/>
    <path id="ID0.01104953559115529" fill="#F2E7B6" d="M 30.300 30.500 C 34.438 30.500 38.188 32.181 40.904 34.896 C 43.619 37.612 45.300 41.362 45.300 45.500 C 45.300 49.638 43.619 53.388 40.904 56.104 C 38.188 58.819 34.438 60.500 30.300 60.500 C 26.162 60.500 22.412 58.819 19.696 56.104 C 16.981 53.388 15.300 49.638 15.300 45.500 C 15.300 41.362 16.981 37.612 19.696 34.896 C 22.412 32.181 26.162 30.500 30.300 30.500 Z " transform="matrix(1.3416666984558105, 0, 0, 1.3416666984558105, 199.2, 119.25)"/>
    <text id="ID0.5391109045594931" fill="#603813" font-family="Helvetica" font-size="17" transform="matrix(1, 0, 0, 1, 217.65, 170.05)">R$50</text>
  </g>
</svg>